Coordinates
version=1
nRows=13
nColumns=36
inDegrees=yes

Units are S.I. units (second, meters, Newtons, ...)
If the header above contains a line with 'inDegrees', this indicates whether rotational values are in degrees (yes) or radians (no).

endheader
time	pelvis_tilt	pelvis_list	pelvis_rotation	pelvis_tx	pelvis_ty	pelvis_tz	hip_flexion_r	hip_adduction_r	hip_rotation_r	knee_angle_r	knee_angle_r_beta	ankle_angle_r	subtalar_angle_r	mtp_angle_r	hip_flexion_l	hip_adduction_l	hip_rotation_l	knee_angle_l	knee_angle_l_beta	ankle_angle_l	subtalar_angle_l	mtp_angle_l	lumbar_extension	lumbar_bending	lumbar_rotation	arm_flex_r	arm_add_r	arm_rot_r	elbow_flex_r	pro_sup_r	arm_flex_l	arm_add_l	arm_rot_l	elbow_flex_l	pro_sup_l
      0.86440680	     13.90578365	      0.66207031	   -183.55828700	      1.44984651	      0.86697632	     -0.05161814	     55.06087512	     -1.22744469	     -2.38109741	     67.49793197	      1.17806115	     13.69391031	    -34.07675394	     -7.49999987	     54.00568962	    -11.34997489	     -8.64957807	     67.57847001	      1.17946681	     18.01512262	    -34.64411962	     -7.49999987	    -33.57972777	     -2.44625059	      2.63025774	     36.42509192	      1.74450638	     19.96090514	     60.57862962	     81.10357976	     44.11989794	     -2.94958859	   -351.83613214	     51.29288142	     72.89890662
      0.88135590	     14.87962373	      0.73895239	   -183.07993296	      1.44319695	      0.86029193	     -0.05087916	     56.13295048	     -1.80327977	     -3.04598651	     68.78049855	      1.20044616	     14.90004311	    -34.10936852	     -7.49999987	     55.21380244	    -11.56929267	     -8.78846063	     68.57203108	      1.19680772	     18.23615073	    -34.65189743	     -7.49999987	    -34.02856240	     -2.00056869	      1.60929905	     39.42379950	     -1.75181945	     17.12023090	     66.58843497	     80.99105011	     48.61500396	     -3.04776629	   -349.40777759	     61.38147906	     73.48353551
      0.89830510	     15.72669941	      1.02855952	   -182.52882279	      1.43684171	      0.86186761	     -0.04046901	     56.63341680	     -2.40623727	     -3.21986208	     68.82667195	      1.20125204	     14.33013133	    -34.04488461	     -7.49999987	     55.94558040	    -11.37821924	     -8.91154831	     69.00939618	      1.20444118	     18.65181925	    -34.64392951	     -7.49999987	    -34.13761518	     -1.06140658	      0.13386264	     44.93059535	     -3.14851350	     15.60833387	     69.04834844	     80.40022465	     56.77992774	      0.07205963	   -347.09759197	     63.40281313	     73.46391420
      0.91525420	     16.43389248	      1.13404034	   -182.14752161	      1.42897292	      0.85986335	     -0.03593181	     57.01790671	     -3.50769556	     -3.45880264	     69.57021521	      1.21422932	     14.82141310	    -34.24174889	     -7.49999987	     56.35017394	    -11.05449659	     -9.22223384	     69.23552183	      1.20838782	     19.25918536	    -34.64904621	     -7.49999987	    -33.72511430	     -0.91932871	      0.37701165	     47.81488157	     -7.25015537	     14.24132734	     74.67531788	     78.04356659	     62.23795762	      1.12962673	   -342.74505794	     67.55041289	     72.60302129
      0.93220340	     16.47645398	      1.25199796	   -181.78410352	      1.42237431	      0.85721074	     -0.03382005	     56.71013477	     -4.08204640	     -3.65187975	     70.33447668	      1.22756820	     14.83600109	    -34.30047984	     -7.49999987	     56.24388257	    -10.85271879	     -9.31097317	     69.94753828	      1.22081485	     19.60625688	    -34.65785938	     -7.49999987	    -33.62596343	     -0.58591521	      0.38211271	     51.75520071	    -10.31182962	     15.94646275	     78.94117640	     77.76851627	     65.79380087	      0.45478767	   -339.63019994	     73.23488861	     72.56682158
      0.94915250	     16.76836980	      1.23520113	   -181.60170673	      1.40794559	      0.85531782	     -0.03575037	     56.38223138	     -4.26017564	     -3.61145593	     70.95815883	      1.23845350	     15.03884033	    -34.33453186	     -7.49999987	     56.03700782	    -10.57099306	     -9.13660126	     70.50512769	      1.23054662	     19.54608504	    -34.65907861	     -7.49999987	    -32.78490509	     -0.69660207	      0.48332986	     54.26192236	    -13.52534360	     15.47804588	     82.95594722	     74.32624113	     68.25597231	      0.01068160	   -337.03607838	     78.77276137	     68.75156630
      0.96610170	     16.86211511	      1.36896022	   -181.24913037	      1.39774618	      0.85910511	     -0.03952400	     55.46894954	     -3.89798227	     -3.56057109	     70.94340716	      1.23819604	     14.82803540	    -34.31278272	     -7.49999987	     55.31057744	    -10.67632340	     -9.05799701	     70.27542244	      1.22653750	     18.31559528	    -34.64401611	     -7.49999987	    -32.06537595	     -0.71367311	      0.46138766	     58.33421074	    -15.73602961	     14.94164798	     83.82465367	     74.42997514	     71.67495837	      0.19640665	   -335.57417090	     81.33798889	     68.87388803
      0.98305090	     17.03544532	      1.34951416	   -181.20355598	      1.38716421	      0.86351095	     -0.03482589	     54.41055626	     -3.91122686	     -3.65054620	     70.27748972	      1.22657359	     14.72777968	    -34.31395573	     -7.49999987	     54.39473605	    -10.40541490	     -9.03403593	     69.65670718	      1.21573889	     17.50965375	    -34.62533515	     -7.49999987	    -30.90290457	     -0.70158305	      0.96375540	     63.96120201	    -15.06037641	     15.90418858	     81.81995905	     75.19512231	     73.73715778	     -0.53740659	   -335.12365046	     84.72256780	     69.19876324
      1.00000000	     17.05993480	      1.36510403	   -181.18384199	      1.37339149	      0.87276205	     -0.02405336	     52.57057880	     -4.25851101	     -3.40243683	     68.63402767	      1.19788976	     13.52138534	    -34.25883699	     -7.49999987	     52.83433181	     -9.82177109	     -9.32453026	     68.49761163	      1.19550885	     16.28854405	    -34.60555484	     -7.49999987	    -29.72487277	     -0.36920994	      1.88836054	     71.43107744	    -12.46151461	     18.33412314	     75.77071726	     75.67904332	     76.02029629	      1.04251034	   -334.33604574	     83.47140648	     69.28100645
      1.01694920	     16.78601708	      1.37246047	   -181.09914313	      1.35787298	      0.88872516	     -0.01792893	     49.61888789	     -4.77824501	     -3.39729605	     65.70270182	      1.14672847	     11.83398800	    -34.13526169	     -7.49999987	     50.38313163	     -8.97338258	     -9.41150379	     66.22817611	      1.15589973	     14.29245449	    -34.56303145	     -7.49999987	    -28.04303582	      0.50848499	      1.76777499	     71.66032464	    -12.60878133	     20.28581568	     75.35967082	     75.90360751	     75.48887319	      0.30356462	   -333.45116169	     85.39465021	     68.84965835
      1.03389830	     16.24657011	      1.38662016	   -180.87430131	      1.33943302	      0.91133039	     -0.02077296	     45.62005486	     -5.27598155	     -3.87014621	     61.68671258	      1.07663624	      9.47398050	    -34.03113195	     -7.49999987	     46.73043694	     -8.48562484	     -9.74851248	     62.25912849	      1.08662678	     11.07286394	    -34.50136945	     -7.49999987	    -26.59719317	      0.84349769	      1.98255848	     69.49461588	    -15.05758094	     22.21566242	     79.08842450	     81.39431178	     73.25051967	     -0.82985246	   -332.25589323	     87.28048707	     71.82702338
      1.05084750	     15.21577709	      1.33688152	   -180.74392349	      1.31439318	      0.93812402	     -0.01839521	     40.05152498	     -5.50812669	     -4.57512429	     55.99511729	      0.97729916	      6.56818023	    -33.79480005	     -7.49999987	     41.48175326	     -7.85890727	    -10.28536544	     56.71670853	      0.98989330	      6.78183079	    -34.41633061	     -7.49999987	    -25.12324250	      1.23008882	      1.93012175	     65.71378857	    -17.25165673	     23.83722547	     81.12712851	     79.38524561	     69.73709214	     -2.03530418	   -329.44698090	     87.41767876	     70.58214459
      1.06779660	     14.29836907	      1.18311054	   -180.53329483	      1.28586788	      0.95642516	     -0.02146970	     34.64658306	     -5.72863471	     -5.30948848	     50.49153783	      0.88124358	      3.47662611	    -33.47913853	     -7.49999987	     36.28239990	     -7.42373829	    -11.04644491	     51.49048646	      0.89867852	      2.70376353	    -34.33477409	     -7.49999987	    -22.67335985	      1.17125996	      1.93815969	     58.32634383	    -20.60527685	     23.54453406	     85.82817707	     80.70031794	     64.94019945	     -2.93880644	   -325.41834178	     87.37868736	     71.16423750
